<?xml version="1.0" standalone="no"?>
<!DOCTYPE svg PUBLIC "-//W3C//DTD SVG 20010904//EN"
 "http://www.w3.org/TR/2001/REC-SVG-20010904/DTD/svg10.dtd">
<svg version="1.0" xmlns="http://www.w3.org/2000/svg"
 width="316.000000pt" height="215.000000pt" viewBox="0 0 316.000000 215.000000"
 preserveAspectRatio="xMidYMid meet">

<g transform="translate(0.000000,215.000000) scale(0.100000,-0.100000)"
fill="#000000" stroke="none">
<path d="M1670 1885 l0 -125 28 0 c44 0 142 -28 200 -57 94 -47 178 -160 197
-265 l7 -38 139 0 c114 0 139 3 139 14 0 10 -23 18 -76 27 -67 11 -77 15 -86
38 -25 68 -23 74 42 124 l61 48 -22 37 c-12 20 -26 41 -30 46 -4 4 -42 -3 -84
-17 l-76 -26 -34 37 c-19 20 -35 43 -35 49 0 7 9 36 20 65 11 29 20 56 20 60
0 3 -21 18 -47 34 l-47 27 -52 -56 c-56 -60 -66 -63 -126 -47 -36 10 -36 12
-48 80 l-12 70 -39 0 -39 0 0 -125z"/>
<path d="M1455 1988 c-2 -7 -8 -37 -12 -67 l-8 -54 -55 -13 -55 -13 -51 57
-51 56 -42 -19 c-23 -10 -44 -22 -47 -27 -3 -5 4 -38 17 -74 l23 -65 -41 -41
-41 -41 -76 26 -77 26 -24 -39 c-14 -22 -25 -43 -25 -47 1 -5 28 -28 60 -52
33 -25 60 -47 60 -50 0 -4 -6 -26 -14 -51 l-13 -45 -77 -15 c-42 -8 -77 -19
-77 -25 1 -6 54 -11 135 -13 l133 -3 6 39 c17 105 115 229 220 277 45 21 79
31 185 51 21 4 22 8 22 119 l0 115 -35 0 c-20 0 -37 -6 -40 -12z"/>
<path d="M1907 1503 c-13 -21 -49 -82 -81 -135 -31 -54 -60 -98 -64 -98 -4 0
-38 59 -75 130 l-68 130 -50 0 -49 0 0 -130 c0 -71 -3 -130 -8 -130 -4 0 -55
58 -112 129 -104 129 -105 130 -147 130 l-43 1 0 -215 0 -215 45 0 45 0 0 130
c0 72 4 130 8 130 5 0 55 -58 113 -129 103 -129 104 -130 146 -130 l42 -1 3
122 3 121 61 -99 c83 -136 90 -136 168 -4 56 97 79 127 75 99 -1 -8 -1 -67 0
-131 l1 -118 45 0 45 0 0 225 0 225 -40 0 c-35 0 -42 -4 -63 -37z"/>
<path d="M822 1203 c2 -13 21 -20 77 -30 40 -7 75 -14 77 -16 2 -2 10 -25 18
-51 l14 -47 -64 -50 c-64 -51 -64 -51 -48 -77 41 -71 35 -68 125 -42 l81 23
35 -35 36 -36 -22 -63 c-11 -35 -21 -69 -21 -76 0 -7 22 -24 49 -37 l49 -25
54 59 53 60 52 -16 c50 -15 54 -19 89 -85 54 -103 64 -94 64 60 l0 128 -52 7
c-184 23 -310 126 -361 293 l-22 73 -143 0 c-130 0 -143 -2 -140 -17z"/>
<path d="M2238 1212 l-137 -3 -12 -42 c-45 -169 -190 -296 -361 -314 l-58 -6
0 -123 c0 -67 4 -125 8 -128 5 -3 23 24 41 59 40 77 43 80 103 95 l47 12 53
-57 53 -57 48 23 c26 13 47 28 47 33 0 6 -10 39 -22 73 l-23 62 39 40 38 39
80 -25 c89 -27 82 -29 122 38 16 27 15 27 -41 70 -31 24 -60 46 -65 49 -11 9
16 102 32 111 8 4 44 12 80 19 36 6 67 13 69 15 15 15 -23 20 -141 17z"/>
<path d="M1044 435 c-8 -20 4 -35 27 -35 14 0 19 7 19 25 0 18 -5 25 -20 25
-11 0 -23 -7 -26 -15z"/>
<path d="M2395 421 c-6 -11 9 -23 19 -14 9 9 7 23 -3 23 -6 0 -12 -4 -16 -9z"/>
<path d="M190 240 l0 -130 25 0 c24 0 25 2 25 75 0 41 4 75 9 75 4 0 36 -34
70 -75 46 -56 69 -75 87 -75 l24 0 0 130 0 130 -25 0 c-25 0 -25 -1 -25 -80 0
-44 -3 -80 -8 -80 -4 0 -37 36 -72 80 -46 56 -72 79 -87 80 -23 0 -23 -2 -23
-130z"/>
<path d="M546 278 c-24 -51 -51 -110 -59 -130 l-16 -38 28 0 c22 0 30 6 35 25
6 24 10 25 76 25 66 0 71 -2 80 -25 7 -18 17 -25 35 -25 14 0 25 2 25 5 0 2
-24 60 -54 127 -48 108 -58 123 -81 126 -24 3 -29 -4 -69 -90z m114 -74 c0 -2
-20 -4 -45 -4 -52 0 -54 5 -24 70 l21 45 24 -54 c13 -29 24 -55 24 -57z"/>
<path d="M823 355 c-39 -17 -53 -57 -32 -94 10 -18 31 -30 73 -42 33 -10 63
-23 67 -30 23 -37 -45 -60 -104 -36 -31 14 -36 14 -41 0 -11 -27 -6 -32 48
-44 62 -14 117 -1 141 34 35 51 9 90 -76 112 -29 8 -56 19 -60 26 -21 34 30
59 87 41 30 -9 36 -8 45 9 8 16 6 21 -16 29 -37 14 -94 12 -132 -5z"/>
<path d="M1040 240 l0 -130 25 0 25 0 0 130 0 130 -25 0 -25 0 0 -130z"/>
<path d="M1170 240 l0 -130 25 0 c22 0 25 4 25 34 l0 33 62 6 c51 5 67 10 85
32 27 31 30 81 8 112 -19 28 -72 43 -147 43 l-58 0 0 -130z m160 61 c14 -28
13 -38 -10 -61 -13 -13 -33 -20 -60 -20 l-40 0 0 50 0 50 50 0 c38 0 52 -4 60
-19z"/>
<path d="M1490 235 c0 -165 18 -184 22 -23 l3 112 53 -92 c29 -50 56 -92 60
-92 4 0 30 41 57 90 28 49 52 90 55 90 3 0 4 -46 2 -101 -2 -63 1 -106 7 -112
8 -8 11 29 11 126 0 75 -3 137 -7 137 -5 0 -30 -41 -58 -91 -27 -50 -55 -95
-61 -100 -8 -7 -29 20 -69 91 -31 55 -61 100 -66 100 -5 0 -9 -61 -9 -135z"/>
<path d="M1876 240 c-33 -72 -56 -133 -53 -136 3 -3 15 13 27 35 l21 42 77 -3
77 -3 18 -37 c9 -21 22 -38 27 -38 5 0 -1 24 -14 53 -81 180 -100 217 -110
217 -6 0 -38 -59 -70 -130z m104 34 c17 -36 30 -70 30 -75 0 -5 -29 -9 -65 -9
-36 0 -65 4 -65 9 0 12 61 141 66 141 3 0 18 -30 34 -66z"/>
<path d="M2130 235 c0 -83 4 -135 10 -135 6 0 10 17 10 38 0 29 7 45 30 67
l30 28 41 -47 c23 -26 50 -57 60 -69 9 -12 21 -19 24 -15 4 4 -19 38 -53 75
l-60 68 55 59 c87 93 50 80 -43 -16 l-84 -87 0 84 c0 50 -4 85 -10 85 -6 0
-10 -52 -10 -135z"/>
<path d="M2400 235 c0 -83 4 -135 10 -135 6 0 10 52 10 135 0 83 -4 135 -10
135 -6 0 -10 -52 -10 -135z"/>
<path d="M2510 235 c0 -168 18 -183 22 -19 l3 117 90 -116 c50 -64 93 -116 98
-117 4 0 7 61 7 135 0 166 -18 184 -22 23 l-3 -113 -88 113 c-49 61 -93 112
-98 112 -5 0 -9 -58 -9 -135z"/>
<path d="M2865 288 c-74 -162 -85 -188 -75 -188 5 0 18 17 27 38 l18 37 77 3
77 3 22 -43 c12 -24 24 -38 26 -32 5 15 -113 264 -125 264 -5 0 -26 -37 -47
-82z m109 -75 c7 -22 5 -23 -58 -23 -38 0 -66 4 -66 10 0 6 14 41 31 78 l31
67 27 -55 c16 -30 32 -65 35 -77z"/>
</g>
</svg>
